<?xml version="1.0" encoding="iso-8859-1"?>
<!-- Generator: Adobe Illustrator 19.0.0, SVG Export Plug-In . SVG Version: 6.00 Build 0)  -->
<svg version="1.1" id="Layer_1" xmlns="http://www.w3.org/2000/svg" xmlns:xlink="http://www.w3.org/1999/xlink" x="0px" y="0px"
	 viewBox="0 0 512 512" style="enable-background:new 0 0 512 512;" xml:space="preserve">
<g>
	<g>
		<path d="M316.746,274.265c-17.168-27.537-38.742-42.702-60.746-42.702s-43.579,15.165-60.749,42.702
			c-14.452,23.18-23.431,51.722-23.431,74.488c0,46.416,37.762,84.178,84.178,84.178s84.178-37.762,84.178-84.178
			C340.177,325.987,331.199,297.445,316.746,274.265z M256,415.618c-36.87,0-66.867-29.996-66.867-66.866
			c0-37.628,31.252-99.879,66.867-99.879c35.613,0,66.867,62.25,66.867,99.879C322.865,385.622,292.87,415.618,256,415.618z"/>
	</g>
</g>
<g>
	<g>
		<path d="M391.042,213.592c-12.781-24.616-23.82-50.081-32.805-75.69C341.622,90.56,306.804,42.82,264.656,36.957V8.656
			C264.656,3.875,260.781,0,256,0c-4.781,0-8.656,3.875-8.656,8.656v28.301c-42.149,5.863-76.967,53.604-93.582,100.946
			c-8.986,25.607-20.024,51.073-32.804,75.69C99.081,255.726,86.02,303.737,86.02,342.02C86.02,435.747,162.273,512,256,512
			s169.98-76.253,169.98-169.98C425.98,303.74,412.919,255.729,391.042,213.592z M256,494.688
			c-84.182,0-152.668-68.487-152.668-152.668c0-35.636,12.334-80.665,32.991-120.45c13.156-25.339,24.52-51.561,33.776-77.934
			c15.206-43.332,48.574-89.971,85.902-89.971c37.327,0,70.695,46.638,85.901,89.971c9.257,26.376,20.62,52.597,33.777,77.934
			c20.657,39.788,32.991,84.816,32.991,120.45C408.668,426.202,340.182,494.688,256,494.688z"/>
	</g>
</g>
<g>
</g>
<g>
</g>
<g>
</g>
<g>
</g>
<g>
</g>
<g>
</g>
<g>
</g>
<g>
</g>
<g>
</g>
<g>
</g>
<g>
</g>
<g>
</g>
<g>
</g>
<g>
</g>
<g>
</g>
</svg>
